    <svg class="opening-banner-text" data-name="Opening Banner Text" xmlns="http://www.w3.org/2000/svg" xmlns:xlink="http://www.w3.org/1999/xlink" viewBox="0 0 845.02 130.81" preserveAspectRatio="xMinYMin meet">
      <defs><clipPath id="clip-path" transform="translate(0.01 6.22)"><path d="M233.78,69.7q-0.2-.1-1.8-1.1-1,1.8-3.9,7.5t-6.6,12.4q-3.7,6.7-7.7,13.3a61.78,61.78,0,0,1-7.4,10.2l-0.8.8a8,8,0,0,1-1.4,1.1,4,4,0,0,1-1.5.6q-0.7.1-.9-0.9-0.6-1.6,0-5.5t1.8-9.1q1.2-5.2,2.7-11T209,76.9q1.2-5.3,1.8-9.5a15.67,15.67,0,0,0,0-6.2A6.41,6.41,0,0,0,204,56a7.91,7.91,0,0,0-4.9,2,33,33,0,0,0-5,5.1,62.48,62.48,0,0,0-4.8,6.9q-2.3,3.8-4.3,7.4,1-4.4,2.3-8.8t2.9-9.4q-1.4-.4-3-0.8a17.94,17.94,0,0,0-3.1-.5,5.39,5.39,0,0,0-2.6.4,2.78,2.78,0,0,0-1.5,1.9q-1.42,5.06-2.65,10.09-1.66,2.73-4.24,7.31-3.5,6.2-7.5,12.4a87.6,87.6,0,0,1-8.2,10.9q-4.2,4.7-7.4,4.7-1.8,0-2.2-2.4-0.4-2.6.9-9t3.4-13.6q2.1-7.2,4.3-13.8t3.6-10q-2.8-.6-5.6-1.1t-4,2.5c-0.13.27-.3,0.67-0.5,1.2s-0.43,1.13-.7,1.8q-4.6-4.6-9.4-4.6a12.57,12.57,0,0,0-7.1,2.2,20.15,20.15,0,0,0-5.7,5.9,35.16,35.16,0,0,0-3.78,8l-0.82,1.53q-2,3.8-4.5,8.4t-5.4,9.4q-2.9,4.8-5.7,8.8a40.48,40.48,0,0,1-5.5,6.5q-2.7,2.5-4.9,2.5a1.9,1.9,0,0,1-1.6-.8,6.33,6.33,0,0,1-.6-3.4,60.47,60.47,0,0,1,1-11.8q1.2-7.4,2.7-14.7t2.8-12.9q1.3-5.6,1.5-6.4a32,32,0,0,0,2.7-4q2.1-3.4,4.9-8.3t5.7-10.8q2.9-5.9,5.2-11.5a72.85,72.85,0,0,0,3.5-10.6q1.2-5,.4-8a7.2,7.2,0,0,0-2.2-3.4A6.47,6.47,0,0,0,118,1.8a7,7,0,0,0-4.6,1.9,21.83,21.83,0,0,0-4.1,4.9,46,46,0,0,0-3.5,6.8,77,77,0,0,0-2.8,7.8q-2,6.4-4.4,15.1t-4.8,18.3a17.42,17.42,0,0,0-4.7-3.2,14.66,14.66,0,0,0-4.5-1.2,9.28,9.28,0,0,0-4.9,1.4,21.81,21.81,0,0,0-4.1,3.2q-5.4,5.4-12.5,12.4t-15,13.6a121.82,121.82,0,0,1-16.4,11.6A49.36,49.36,0,0,1,15,100.8a26.82,26.82,0,0,1-5.7.2A15,15,0,0,1,4,99.7a11.69,11.69,0,0,1-4-3v3.42a11.6,11.6,0,0,0,2.28,1.36,22.36,22.36,0,0,0,13.1,1.5A49.92,49.92,0,0,0,30,98a97.7,97.7,0,0,0,14.4-9.1,165.29,165.29,0,0,0,13.3-11.2q6.3-5.9,11.5-11.1a54.05,54.05,0,0,0-5,17.4,27.93,27.93,0,0,0,0,4.7,22.59,22.59,0,0,0,1,5.2,10.77,10.77,0,0,0,2.4,4.2,5.49,5.49,0,0,0,4.2,1.7,6.79,6.79,0,0,0,4.3-2,28.89,28.89,0,0,0,4.6-5.3,75.51,75.51,0,0,0,4.5-7.4q2.2-4.1,4-8.1-1,5.8-1.7,10.8a65.24,65.24,0,0,0-.7,9,42.11,42.11,0,0,0,.3,4.8,18.34,18.34,0,0,0,1.3,5,10.82,10.82,0,0,0,2.8,4,6.67,6.67,0,0,0,4.6,1.6q4.4,0,8.9-5.1a90.14,90.14,0,0,0,8.7-11.8A153.08,153.08,0,0,0,121,81.7l0.52-1.05c0,0.52-.1,1-0.12,1.55q0,1.8.2,4.4a16.84,16.84,0,0,0,1.1,4.9,11.16,11.16,0,0,0,2.5,3.9,5.42,5.42,0,0,0,4,1.6q3.4,0,6.9-4.1a61.92,61.92,0,0,0,6.5-9.3q-1,5-1.5,9.5a20.67,20.67,0,0,0,.3,7.5,9.89,9.89,0,0,0,2.9,5.1,8.79,8.79,0,0,0,6.1,1.9q3.6,0,7.8-4.4a82.22,82.22,0,0,0,8.3-10.4q4.1-6,7.5-12.2,0.86-1.56,1.64-3c-0.18.82-.37,1.63-0.54,2.45q-2.1,9.9-4.9,20.7,2-.2,3.6-0.3a17.85,17.85,0,0,0,2.9-.4,4.47,4.47,0,0,0,2.2-1.2,6.88,6.88,0,0,0,1.5-2.9q1-3.2,1.7-5.9t1.3-5.5q1.6-3,4.3-7.4t5.5-8.5a78.24,78.24,0,0,1,5.4-7.1q2.6-3,4.2-3a1,1,0,0,1,1,.8q0.2,2-1.2,7.6t-3.3,12.7q-1.9,7.1-3.5,14.2A68.73,68.73,0,0,0,194,106a14.29,14.29,0,0,0,1.5,7,6.64,6.64,0,0,0,5.7,4,6,6,0,0,0,3.7-.8,14.53,14.53,0,0,0,2.9-2.2,60.44,60.44,0,0,0,7.2-9.8q3.8-6.2,7.4-12.7t6.5-12.2q2.9-5.7,4.5-8.5C233.78,70.13,233.91,69.77,233.78,69.7ZM104.38,50.2q1-3.4,2.2-7.7t2.5-9q1.3-4.7,2.3-8.3,0.4-1.2,1.3-4.3t2.1-6.5a42.52,42.52,0,0,1,2.6-6q1.4-2.6,2.6-2.6,2,0,2.6,2.4a14.75,14.75,0,0,1-.8,6.3q-1.2,4.1-3.2,9.1T114,33.9q-2.6,5.3-4.9,9.7t-3.9,7.5a23.84,23.84,0,0,1-2,3.5Q103.38,53.6,104.38,50.2ZM91,68.8q-2,4.2-4.5,9.1t-5.1,9.2q-2.6,4.3-4.8,7.3t-3.6,3q-1,0-1.4-1.8-0.4-2.4.7-9a85.62,85.62,0,0,1,3.4-13.4A70.17,70.17,0,0,1,81,61.1q3-5.3,6.6-5.3a8.52,8.52,0,0,1,5.8,2.6A94,94,0,0,0,91,68.8Zm53.8,6.2q-1.8,3.2-3.8,6.6t-3.9,6.3a29.68,29.68,0,0,1-3.7,4.7q-1.8,1.8-3,1.8c-0.8.13-1.27-.37-1.4-1.5a23.51,23.51,0,0,1-.2-2.5,47.07,47.07,0,0,1,1-8.6,61.41,61.41,0,0,1,2.8-10,33.64,33.64,0,0,1,4.4-8.3q2.6-3.5,5.8-3.5,2.8,0,5.8,3-1,3-1.9,5.9Z" style="fill:none"/></clipPath><clipPath id="clip-path-2" transform="translate(0.01 6.22)"><path d="M409.21,69.62A6.33,6.33,0,0,1,408,68.55q-1.08,1.61-2.87,5t-4,7.52q-2.24,4.12-4.84,8.51t-5.11,7.88a42.54,42.54,0,0,1-4.93,5.82q-2.42,2.33-4.39,2.33a1.65,1.65,0,0,1-1.43-.81,6.74,6.74,0,0,1-.72-3,77.48,77.48,0,0,1,1-10.66q1-6.72,2.33-13.26t2.6-11.56L387,60.67a28.77,28.77,0,0,0,2.42-3.58q1.88-3,4.3-7.44t5.11-9.59a104.45,104.45,0,0,0,4.66-10.3,78.48,78.48,0,0,0,3-9.5,14.75,14.75,0,0,0,.36-7.08A5.46,5.46,0,0,0,405.09,10a5.8,5.8,0,0,0-3.94-1.25,6.24,6.24,0,0,0-4.12,1.7,19.57,19.57,0,0,0-3.67,4.39A39.54,39.54,0,0,0,390.22,21q-1.44,3.49-2.51,7.08-1.79,5.56-3.94,13.35t-4.3,16.39Q375.53,54,371.23,54q-4.12,0-8,4a34.31,34.31,0,0,0-6.45,9.85c-0.48,1.07-.9,2.15-1.3,3.24-0.57,1.1-1.27,2.47-2.11,4.11q-2.6,5.11-5.91,11.11t-6.9,11.91a55.42,55.42,0,0,1-6.63,9.14l-0.72.72a7.14,7.14,0,0,1-1.25,1,3.58,3.58,0,0,1-1.34.54q-0.63.09-.81-0.81a10.94,10.94,0,0,1,0-4.93q0.54-3.49,1.61-8.15t2.42-9.85q1.34-5.19,2.42-9.94t1.61-8.51a14,14,0,0,0,0-5.55,5.74,5.74,0,0,0-6.09-4.66,7.09,7.09,0,0,0-4.39,1.79,29.6,29.6,0,0,0-4.48,4.57,56,56,0,0,0-4.3,6.18q-2.06,3.41-3.85,6.63,0.89-3.94,2.06-7.88t2.6-8.42q-1.26-.36-2.69-0.72A16,16,0,0,0,314,59a4.83,4.83,0,0,0-2.33.36,2.49,2.49,0,0,0-1.34,1.7q-1.27,4.53-2.38,9-1.49,2.44-3.8,6.54-3.14,5.56-6.72,11.11a78.44,78.44,0,0,1-7.35,9.76q-3.76,4.21-6.63,4.21-1.61,0-2-2.15-0.36-2.33.81-8.06t3-12.18q1.88-6.45,3.85-12.36t3.22-9q-2.51-.54-5-1t-3.58,2.24c-0.12.24-.27,0.6-0.45,1.07s-0.39,1-.63,1.61q-4.12-4.12-8.42-4.12a11.26,11.26,0,0,0-6.36,2,18.05,18.05,0,0,0-5.11,5.29,31.64,31.64,0,0,0-3.49,7.44,30.87,30.87,0,0,0-1.52,8.24q0,1.61.18,3.94a15.08,15.08,0,0,0,1,4.39,10,10,0,0,0,2.24,3.49A4.85,4.85,0,0,0,264.81,94q3,0,6.18-3.67A55.5,55.5,0,0,0,276.81,82q-0.9,4.48-1.34,8.51a18.51,18.51,0,0,0,.27,6.72,8.86,8.86,0,0,0,2.6,4.57,7.87,7.87,0,0,0,5.46,1.7q3.22,0,7-3.94a73.63,73.63,0,0,0,7.44-9.32q3.67-5.37,6.72-10.93,0.77-1.4,1.47-2.64c-0.16.73-.33,1.46-0.48,2.19Q304,87.72,301.53,97.4q1.79-.18,3.23-0.27a16,16,0,0,0,2.6-.36,4,4,0,0,0,2-1.07,6.17,6.17,0,0,0,1.34-2.6q0.89-2.86,1.52-5.29t1.16-4.93q1.43-2.69,3.85-6.63t4.93-7.61A70.22,70.22,0,0,1,327,62.28q2.33-2.69,3.76-2.69a0.85,0.85,0,0,1,.9.72,24.71,24.71,0,0,1-1.08,6.81q-1.26,5-3,11.38t-3.14,12.72a61.61,61.61,0,0,0-1.61,10.84,12.8,12.8,0,0,0,1.34,6.27,6,6,0,0,0,5.11,3.58,5.35,5.35,0,0,0,3.31-.72,13,13,0,0,0,2.6-2,54.08,54.08,0,0,0,6.45-8.78q3.4-5.55,6.63-11.38,2.71-4.89,5-9.27c0,0.08,0,.15,0,0.23a23.45,23.45,0,0,0,.45,10.75A12.34,12.34,0,0,0,356,94.89a4.79,4.79,0,0,0,3.76,1.61,6.09,6.09,0,0,0,3.85-1.79A25.92,25.92,0,0,0,367.74,90a73.22,73.22,0,0,0,4-6.54q2-3.58,3.58-7.35-0.54,2.69-1.17,6.72T373.29,91a38.79,38.79,0,0,0,.27,8,11.77,11.77,0,0,0,2.51,6.09,7,7,0,0,0,5.2,2.51q3.94,0,8-4.48A73.4,73.4,0,0,0,397,92.56q3.76-6.09,6.81-12.27A108.81,108.81,0,0,1,409,70.7C409.39,70.1,409.45,69.74,409.21,69.62ZM389,52.25q0.9-3,2-7t2.24-8.06q1.16-4.12,2.06-7.35a35.35,35.35,0,0,1,1.08-3.94q0.9-2.86,2-5.91a38.18,38.18,0,0,1,2.33-5.38q1.25-2.33,2.33-2.33,1.79,0,2.33,2.15a13.2,13.2,0,0,1-.72,5.64q-1.07,3.67-2.87,8.24t-4.12,9.32q-2.33,4.75-4.39,8.69T389.68,53a21.64,21.64,0,0,1-1.79,3Q388.07,55.29,389,52.25Zm-110.19,22q-1.61,2.87-3.4,5.91t-3.49,5.64A26.63,26.63,0,0,1,268.57,90a4.4,4.4,0,0,1-2.69,1.61c-0.72.12-1.14-.33-1.25-1.34a21.13,21.13,0,0,1-.18-2.24,42.19,42.19,0,0,1,.9-7.7,55,55,0,0,1,2.51-9A30.13,30.13,0,0,1,271.8,64q2.33-3.13,5.2-3.14,2.51,0,5.2,2.69-0.9,2.69-1.7,5.29Zm99.08-10.12q-0.54,2.24-.9,4.57-1.79,3.76-4,8.24t-4.57,8.33a74.85,74.85,0,0,1-4.3,6.45q-2,2.6-3.22,2.6c-0.72,0-1.14-.54-1.25-1.61q-0.36-2.15.63-8.06a76.63,76.63,0,0,1,3-12A62.79,62.79,0,0,1,368,61.83q2.69-4.74,5.91-4.75a7.24,7.24,0,0,1,5,2.51Q378.4,61.92,377.86,64.16Z" style="fill:none"/></clipPath><clipPath id="clip-path-3" transform="translate(0.01 6.22)"><path d="M686.91,49.1a3.23,3.23,0,0,1-.6-2.9,6.18,6.18,0,0,1,1.7-3.1,4,4,0,0,1,2.9-1.3,3.14,3.14,0,0,1,2.6,1.3,3.58,3.58,0,0,1,.6,3.1,6.2,6.2,0,0,1-1.7,2.9,4,4,0,0,1-2.9,1.3A3.12,3.12,0,0,1,686.91,49.1Zm-101.4,1.3a4,4,0,0,0,2.9-1.3,6.2,6.2,0,0,0,1.7-2.9,3.58,3.58,0,0,0-.6-3.1,3.14,3.14,0,0,0-2.6-1.3,4,4,0,0,0-2.9,1.3,6.18,6.18,0,0,0-1.7,3.1,3.23,3.23,0,0,0,.6,2.9A3.12,3.12,0,0,0,585.52,50.4ZM845,60.14c0-.51-0.9-1-1.54-1.34a19.68,19.68,0,0,0-3.54-1.7,10.67,10.67,0,0,0-3.4-.7,21.07,21.07,0,0,0-12.2,3.5A62.59,62.59,0,0,0,813,69.3q-5.5,5.7-10.9,12.4t-10.9,12.4a64.4,64.4,0,0,1-11.4,9.5,21.11,21.11,0,0,1-12.3,3.6,8.06,8.06,0,0,1-7.4-4.4,21.27,21.27,0,0,1-2-10.6,52.54,52.54,0,0,1,1.15-10.58c-1.3,2.46-2.68,5-4.15,7.68q-3.6,6.5-7.4,12.7a60.44,60.44,0,0,1-7.2,9.8,14.58,14.58,0,0,1-2.9,2.2,6,6,0,0,1-3.7.8,6.64,6.64,0,0,1-5.7-4,14.3,14.3,0,0,1-1.5-7,68.75,68.75,0,0,1,1.8-12.1q1.6-7.1,3.5-14.2t3.3-12.7q1.4-5.6,1.2-7.6a1,1,0,0,0-1-.8q-1.6,0-4.2,3a78.33,78.33,0,0,0-5.4,7.1q-2.8,4.1-5.5,8.5t-4.3,7.4q-0.6,2.8-1.3,5.5t-1.7,5.9a6.89,6.89,0,0,1-1.5,2.9,4.46,4.46,0,0,1-2.2,1.2,17.84,17.84,0,0,1-2.9.4q-1.6.1-3.6,0.3,2.8-10.8,4.9-20.7c0.22-1,.45-2,0.67-3.06l-1.17,1.86q-3,4.7-6.5,9.5t-7,8.8a34.32,34.32,0,0,1-6.5,6,7.76,7.76,0,0,1-4.4,1.2,7.27,7.27,0,0,1-4.3-1.2,7.82,7.82,0,0,1-2.6-3.1,16.39,16.39,0,0,1-1.3-4.1,24.62,24.62,0,0,1-.4-4.4,42,42,0,0,1,.8-7.8c0.37-1.94.8-3.88,1.27-5.82l-1.67,3a135.08,135.08,0,0,1-7.5,12.1,63.47,63.47,0,0,1-8.7,10.2q-4.6,4.3-9,4.3a6.65,6.65,0,0,1-4.6-1.6,10.8,10.8,0,0,1-2.8-4,21.18,21.18,0,0,1-1.4-5.1,33.42,33.42,0,0,1-.4-4.9,120.8,120.8,0,0,1,1.61-17,33,33,0,0,1-5.91,6,41,41,0,0,1-11.7,6,48.73,48.73,0,0,1-.8,8.9,24.74,24.74,0,0,1-2.8,7.8,15.28,15.28,0,0,1-5.5,5.6,17.07,17.07,0,0,1-8.9,2.1,12,12,0,0,1-5.8-1.3,7.62,7.62,0,0,1-3.4-3.4,7.41,7.41,0,0,1-.6-4.5,9.58,9.58,0,0,1,2.6-4.8,19.34,19.34,0,0,1,3.9-3.3,47.29,47.29,0,0,1,4.7-2.7q2.4-1.2,4.4-2.1c1.33-.6,2.4-1,3.2-1.3a63.32,63.32,0,0,0-.4-10.1q-0.6-4.9-1.2-9.9a19.78,19.78,0,0,1-.3-2.6c-0.07-1.07-.1-2.13-0.1-3.2q-1.4,2.2-2.6,4.4t-2.59,4.39h0q-1.8,3.2-4.8,7.9t-6.5,9.5q-3.5,4.8-7,8.8a34.32,34.32,0,0,1-6.5,6,7.76,7.76,0,0,1-4.4,1.2,7.27,7.27,0,0,1-4.3-1.2,7.82,7.82,0,0,1-2.6-3.1,16.39,16.39,0,0,1-1.3-4.1,24.62,24.62,0,0,1-.4-4.4,42,42,0,0,1,.8-7.8c0.36-1.91.79-3.82,1.25-5.73-1.56,2.66-3.3,5.53-5.25,8.63q-3.2,5.1-6.8,10.4t-7,9.7a60.75,60.75,0,0,1-6.4,7.2q-3,2.8-5,2.8-4.6,0-6.4-3.3a19,19,0,0,1-2-8.4,49.55,49.55,0,0,1,1-11.3q1.2-6.2,2.6-12,2-7.6,4-13.3t3-8.3c-0.67-.4-1.43-0.83-2.3-1.3a14.93,14.93,0,0,1-2.3-1.5q-2.2,3.4-4,6.8c-1,1.95-2.18,3.9-3.41,5.84a5,5,0,0,1-.39.76q-1.6,2.8-4.9,9.2t-7.2,13.7q-3.9,7.3-8.1,14.1a66.19,66.19,0,0,1-7.6,10.4,8.81,8.81,0,0,1-6.2,3,7.48,7.48,0,0,1-5.5-3.1q-2.3-2.9-2.1-8.1a68.73,68.73,0,0,1,1.8-12.1q1.6-7.1,3.5-14.1t3.3-12.7q1.4-5.7,1.2-7.5a1,1,0,0,0-1-1q-1.8,0-4.8,3.7t-6.2,8.5q-3.2,4.8-5.9,9.6t-3.9,7q-0.4,2.6-1.3,6.4t-1.7,7.2a5.62,5.62,0,0,1-1.3,2.9,5.3,5.3,0,0,1-2.1,1.3,10.94,10.94,0,0,1-2.8.5q-1.6.1-3.6,0.3,1-4.6,2-10t2.6-12q0.8-3.8,2.4-10.1l0.39-1.56c-1.13,1.8-2.39,3.68-3.79,5.66a87,87,0,0,1-10,11.7,61.19,61.19,0,0,1-11.9,9.2,24.53,24.53,0,0,1-12.5,3.7,9.43,9.43,0,0,1-7-3.5q-2.8-3.3-2.6-12.1a51.82,51.82,0,0,1,1.7-12.7,57.19,57.19,0,0,1,4.6-12.3,32,32,0,0,1,6.9-9.2,12.88,12.88,0,0,1,8.8-3.6,8.36,8.36,0,0,1,4.8,1.5,8.49,8.49,0,0,1,3.2,4.3c0.13,0.53.3,1.17,0.5,1.9a5.39,5.39,0,0,1,.2,2,2.7,2.7,0,0,1-.5,1.4,1.13,1.13,0,0,1-1.4.1,1.91,1.91,0,0,1-1.4-1.1,4.08,4.08,0,0,1-.1-1.6,9.56,9.56,0,0,1,.3-1.6,4.38,4.38,0,0,0,.2-1.1,3.71,3.71,0,0,0-1.2-2.3,3.22,3.22,0,0,0-2.2-.9q-2.6,0-5.6,4.8a69.74,69.74,0,0,0-5.6,11.4,111,111,0,0,0-4.4,13.8,61.87,61.87,0,0,0-2,12.2q-0.2,3.4,1,4.8a4,4,0,0,0,3.2,1.4q5.4,0,11.2-3.9a69.42,69.42,0,0,0,11.2-9.5A99,99,0,0,0,468,76.9a113,113,0,0,0,6.62-10.36l1-3.84q1.7-6.7,3.3-13t2.6-9.9q1-3.6,2.8-10.3a123.81,123.81,0,0,1,4.4-13.3,56.8,56.8,0,0,1,5.9-11.4q3.3-4.8,7.3-4.8a6.47,6.47,0,0,1,4.4,1.4,7.17,7.17,0,0,1,2.2,3.6,16.46,16.46,0,0,1-.4,7.9,78.6,78.6,0,0,1-3.5,10.6q-2.3,5.7-5.2,11.5t-5.7,10.7q-2.8,4.9-4.9,8.3a32.19,32.19,0,0,1-2.7,4q-0.4,1.2-1.1,4t-1.6,6.3q-0.9,3.5-1.8,7.1t-1.7,6.4q2-3.8,4.4-8a75,75,0,0,1,5.1-7.8,36.42,36.42,0,0,1,5.4-5.9,8.27,8.27,0,0,1,5.3-2.3,6.56,6.56,0,0,1,4.5,1.5,7.47,7.47,0,0,1,2.3,3.7,15.66,15.66,0,0,1,0,6.2q-0.6,4.2-1.8,9.5t-2.6,11.1q-1.4,5.8-2.6,11t-1.9,9.1q-0.7,3.9-.1,5.5a0.89,0.89,0,0,0,1,.9,3.31,3.31,0,0,0,1.5-.6c0.47-.33.93-0.7,1.4-1.1s0.77-.67.9-0.8a81,81,0,0,0,7.6-10.7q4.4-7.1,8.5-14.7t7.3-13.9c1.38-2.71,2.47-4.79,3.29-6.25l-0.09-.05,8.2-14.4a19.57,19.57,0,0,1-4.3-5.1,9.76,9.76,0,0,1-1.5-5.7,4.87,4.87,0,0,1,1.4-3.6q1.4-1.4,4.6-1.4,3.4,0,4.6,1.8a7.06,7.06,0,0,1,1.2,4,19.4,19.4,0,0,1-.8,3.9q-0.6,1.9-1,2.9a20.17,20.17,0,0,0,5.2,3.9,48.09,48.09,0,0,0,6.6,3.1q-0.4.8-2.8,8.3t-5.2,17.3q-1.2,5-2.4,10.1t-1.9,9.3a34.78,34.78,0,0,0-.6,6.8c0.07,1.73.5,2.6,1.3,2.6s2.33-.93,4.2-2.8a67.79,67.79,0,0,0,6.1-7.2q3.3-4.4,6.9-9.8t6.8-10.4q3.2-5,5.6-9.2c1.48-2.6,2.62-4.55,3.42-5.89,0.16-.5.32-1,0.48-1.51q1.3-3.8,2.3-6.4a3.37,3.37,0,0,1,4-2.3q2.8,0.5,5.6,1.1-0.2.6-1.2,3.2t-2.2,6.4q-1.2,3.8-2.5,8.2t-2.3,8.7q-1,4.3-1.6,7.9a16.37,16.37,0,0,0-.2,5.6q0.2,2.4,2,2.4a5.72,5.72,0,0,0,3-1,31.67,31.67,0,0,0,6.4-6q3.6-4.2,7-9t6.4-9.6q3-4.8,4.8-8h0l7-12.21a7.19,7.19,0,0,1,1.5-3.3,3.84,3.84,0,0,1,3.1-1.3,3.28,3.28,0,0,1,1.8.4,6.87,6.87,0,0,1,1,.8l-2.4,4a10.87,10.87,0,0,0,.2,3.5q0.4,2.1,1.2,4.9,1.4,4.8,2.5,9.6a53.63,53.63,0,0,1,1.3,9.8,33.48,33.48,0,0,0,11.2-6.3,45.14,45.14,0,0,0,7.6-9l0.1-.52q2.5-12.4,5.9-24.6l-6.3.8a45.84,45.84,0,0,1-5.9.4q-6.6,0-10.6-2.1a13.69,13.69,0,0,1-5.8-5.3,11.21,11.21,0,0,1-1.5-6.6,11.52,11.52,0,0,1,2.5-6.2q-0.2,9,4.7,13.5a17,17,0,0,0,11.9,4.5,41.42,41.42,0,0,0,5.7-.4q2.9-.4,6.1-1,1.6-5.2,3-10t2.8-9.2l1.2-3.6a3.52,3.52,0,0,1,4.2-2.3q3,0.5,5.8,1.1-1.6,5.2-3.4,10.9t-3.4,11.5a30.54,30.54,0,0,1,6.5-.1,22.11,22.11,0,0,1,6.1,1.5,7.65,7.65,0,0,1,3.2,2.3,3.29,3.29,0,0,1,.4,3.5,18.48,18.48,0,0,0-8.2-3.8,33.88,33.88,0,0,0-9-.4q-2,6.4-4,13.6t-3.7,14.7a148.05,148.05,0,0,0-2.6,14.9,94.36,94.36,0,0,0-.7,14.2,8,8,0,0,0,.7,3.2,1.65,1.65,0,0,0,1.5.8,8.5,8.5,0,0,0,5-2.2,38.24,38.24,0,0,0,5.7-5.7q2.9-3.5,5.8-7.7t5.4-8.2q2.5-4,4.4-7.3c0.9-1.56,1.64-2.86,2.23-3.91,0.25-.8.5-1.61,0.77-2.39q1.3-3.8,2.3-6.4a3.37,3.37,0,0,1,4-2.3q2.8,0.5,5.6,1.1-0.2.6-1.2,3.2t-2.2,6.4q-1.2,3.8-2.5,8.2t-2.3,8.7q-1,4.3-1.6,7.9a16.37,16.37,0,0,0-.2,5.6q0.2,2.4,2,2.4a5.72,5.72,0,0,0,3-1,31.67,31.67,0,0,0,6.4-6q3.6-4.2,7-9t6.4-9.6c1.61-2.57,2.94-4.78,4-6.66q1.2-4.86,2.56-9.74a2.78,2.78,0,0,1,1.5-1.9,5.4,5.4,0,0,1,2.6-.4,17.94,17.94,0,0,1,3.1.5q1.6,0.4,3,.8-1.6,5-2.9,9.4t-2.3,8.8q2-3.6,4.3-7.4a62.47,62.47,0,0,1,4.8-6.9,33,33,0,0,1,5-5.1,7.91,7.91,0,0,1,4.9-2,6.41,6.41,0,0,1,6.8,5.2,15.69,15.69,0,0,1,0,6.2q-0.6,4.2-1.8,9.5T739,85.8q-1.5,5.8-2.7,11t-1.8,9.1q-0.6,3.9,0,5.5,0.2,1,.9.9a4,4,0,0,0,1.5-.6,8,8,0,0,0,1.4-1.1l0.8-.8a61.8,61.8,0,0,0,7.4-10.2q4-6.6,7.7-13.3t6.6-12.4l1.65-3.23a63.78,63.78,0,0,1,3-6.77,42.48,42.48,0,0,1,7.8-10.8q4.4-4.3,9-4.3a9.47,9.47,0,0,1,6.3,2.4,5.81,5.81,0,0,1,1.9,5.2,7.79,7.79,0,0,1-2,4.8,14.65,14.65,0,0,1-4.4,3.3,31,31,0,0,1-5.4,2.1,27.26,27.26,0,0,1-5,1q-1.4,3.4-2.9,7.7T768,84q-1.3,4.4-2.2,8.2a28.63,28.63,0,0,0-.9,6.4q-0.2,3.4,1,4.8a3.79,3.79,0,0,0,3,1.4,17.77,17.77,0,0,0,11-3.6,65.5,65.5,0,0,0,10.6-9.5q5.2-5.7,10.5-12.4a142.47,142.47,0,0,1,11-12.4,64.62,64.62,0,0,1,11.68-9.4A22.55,22.55,0,0,1,836.43,54a13.81,13.81,0,0,1,4.62.8A11,11,0,0,1,845,57v3.12ZM774.51,65.2q7.6-1,10.6-4t2.8-5.4q0-3.2-3.4-3.6-2.2,0-4.8,3.6A53.72,53.72,0,0,0,774.51,65.2ZM487.12,52.8a26.82,26.82,0,0,0,2.1-3.4q1.7-3,4-7.4t4.9-9.7q2.6-5.3,4.6-10.4a88.74,88.74,0,0,0,3.1-9.2,15.5,15.5,0,0,0,.7-6.3q-0.6-2.4-2.6-2.4-1.2,0-2.7,3.2t-3.3,8.2q-1.8,5-3.5,10.9t-3.2,11.3q-1.5,5.4-2.6,9.6T487.12,52.8Zm54-9.2a4.27,4.27,0,0,0-.5-2.1,2,2,0,0,0-1.9-.9q-1.8,0-1.8,1.6-0.4,2.6,3,6.6a6.29,6.29,0,0,0,.7-2.1C540.82,45.7,541,44.67,541.12,43.6ZM615.32,88q-2.6,1-7.2,3.2a20.49,20.49,0,0,0-7.2,5.4,6.94,6.94,0,0,0-1.5,6q0.7,3.2,4.7,3.4a7.24,7.24,0,0,0,5.4-1.7,13,13,0,0,0,3.4-4.6,23.35,23.35,0,0,0,1.7-5.9Q615.11,90.6,615.32,88Z" style="fill:none"/></clipPath></defs><title>dan.and.christine.cutoff</title><g style="clip-path:url(#clip-path)"><path id="dan-d-1" d="M2,94.25c0,0.95-.08,5.87,0,6,0.35,0.58,1.54.75,2.81,1.12a24.39,24.39,0,0,0,6.08.83A35.11,35.11,0,0,0,21,100.62c4.51-1.44,10.24-4,18.33-9.58A161,161,0,0,0,55.42,78c2.09-1.83,2.71-2.47,12.25-11.33,5.77-5.36,7.18-7.66,9.73-9.81a12.94,12.94,0,0,1,3.85-2.27,10.43,10.43,0,0,1,4.08-.83l5.08,0.82,1.92,2" transform="translate(0.01 6.22)" style="fill:none;stroke:#fff;stroke-miterlimit:10;stroke-width:4px"/><path id="dan-d-2" d="M86.08,49.12L77.67,59.95a53.53,53.53,0,0,0-6.58,12.58c-1.79,4.94-2.17,8.35-2.92,15.17-0.35,3.17-.51,6.06,1.25,8.33,0.24,0.31,1.83,2.37,3.75,2.17,0.83-.09,1.47-0.58,2.75-2a38.28,38.28,0,0,0,4-5.33l0.75-6.58,0.75-.42,1-1.67,0.49-2.42,0.75-3.18-0.33-2.94-0.42-6.88" transform="translate(0.01 6.22)" style="fill:none;stroke:#fff;stroke-miterlimit:10;stroke-width:9px"/><path id="dan-d-3" d="M86.29,79.45l3-4.83L104,55.37l1.44-2.62" transform="translate(0.01 6.22)" style="fill:none;stroke:#fff;stroke-miterlimit:10;stroke-width:2.29999995231628px"/><path id="dan-d-4" d="M105.08,53.28l7.08-13.08,6.17-12.67,4.75-11.92,1.08-6.08-0.32-2.86-2.1-2.3-2-1.25" transform="translate(0.01 6.22)" style="fill:none;stroke:#fff;stroke-miterlimit:10;stroke-width:3px"/><path id="dan-d-5" d="M122.83-.47l-11.4,9.54-3,10.23-4.79,16.91-5.4,22.08L93.38,83.45l-5.63,16.92,5.92,9.22,6,2.28,5.42-6.17,6.08-10.42,4.5-7.67" transform="translate(0.01 6.22)" style="fill:none;stroke:#fff;stroke-miterlimit:10;stroke-width:15px"/><path id="dan-a-1" d="M113,90.07l4.08-8.17,4.83-10.56a10,10,0,0,1,1.26-2.06L127.92,63a11.21,11.21,0,0,1,2.67-2.54h0a18,18,0,0,1,8.25-3h0l5-2.46L145,63.78" transform="translate(0.01 6.22)" style="fill:none;stroke:#fff;stroke-miterlimit:10;stroke-width:7px"/><path id="dan-a-2" d="M145.29,59.28a16.79,16.79,0,0,0-9.42,2.63c-2.28,1.46-3.77,3.6-5,7.54-2,6.5-6.37,8.54-6.08,14.21,0.09,1.76-.19,2.95.46,5.25,1,3.46,2.09,5.65,4,6,0.65,0.13.62,0.56,1.88-.08A16.14,16.14,0,0,0,135,92.41c2.24-2.32,3.55-17,2.67-24.58" transform="translate(0.01 6.22)" style="fill:none;stroke:#fff;stroke-miterlimit:10;stroke-width:10px"/><path id="dan-a-3" d="M156.56,53.95c-3.95,5.9-3.41,6.5-4.19,10a64.55,64.55,0,0,1-1.75,7.63c-1.56,4.92-2.5,5.09-3.62,9.13s-0.19,3.91-1.5,10.13c-0.78,3.72-1.33,4.76-1.25,7.13,0.07,2.14,0,5.67,1.88,6.88,2.76,1.79,8.65-3.18,10.38-4.62,11.65-9.75,16.55-31.54,18.63-44.38" transform="translate(0.01 6.22)" style="fill:none;stroke:#fff;stroke-miterlimit:10;stroke-width:10px"/><path id="dan-n-1" d="M187.23,49.48l-15.72,58.94" transform="translate(0.01 6.22)" style="fill:none;stroke:#fff;stroke-miterlimit:10;stroke-width:11px"/><path id="dan-n-2" d="M179.42,85.37a49.9,49.9,0,0,0,16.5-22.08c1.76-4.81.76-9.9,2.5-10.33,2.69-.67,8.56,6,9,13.5,0.28,4.73-2.75,5.92-4.33,12.67-1.25,5.32,0,5.46-1,10.67-1.35,6.88-4.55,8.36-5.5,16-0.28,2.25-.31,4.55,1,6.67,0.28,0.45,1.81,2.82,4.08,3.17,3.05,0.47,6.08-2.92,8.42-6.17,8.37-11.61,24.25-44,26.83-49.25" transform="translate(0.01 6.22)" style="fill:none;stroke:#fff;stroke-miterlimit:10;stroke-width:11px"/></g><g style="clip-path:url(#clip-path-2)"><path id="and-a-1" d="M282.33,61.28c-2.25-.83-5.5-0.92-8.08-1.71-5.81-1.78-9,8.5-10.87,13.25-2.08,5.28-2,8.89-1.87,13.13,0.07,2.54.38,4.35,1.75,5.38,1.85,1.37,4.47.43,4.63,0.38A6,6,0,0,0,271,88.53c3-5.49,1.5-21,1.33-22.92" transform="translate(0.01 6.22)" style="fill:none;stroke:#fff;stroke-miterlimit:10;stroke-width:8px"/><path id="and-a-2" d="M289.58,52.95c-2.2,8.12-4.29,14.55-5.75,18.83-2.65,7.77-5.15,14-4.75,22.67,0.31,6.65,2,7.72,2.58,8,3.27,1.57,8.86-4.27,11-6.5,4-4.11,7.71-15,10.58-28.06" transform="translate(0.01 6.22)" style="fill:none;stroke:#fff;stroke-miterlimit:10;stroke-width:10px"/><path id="and-n-1" d="M317.72,50.64L303.86,98.72" transform="translate(0.01 6.22)" style="fill:none;stroke:#fff;stroke-miterlimit:10;stroke-width:10px"/><path id="and-n-2" d="M314.69,78.89c6.94,1.75,12.25-19.25,16.05-19.3,5.21-.06,5.95,4,4.89,7.36-3,9.49-7.08,19.4-8.87,37.44-0.11,1.12-1.31,3.35-.25,4.88,1.28,1.85,4.66,1.41,4.94,1.38,4.54-.64,7.17-6.45,8.69-9.94,5.39-12.43,9.37-26.91,11.5-35.38" transform="translate(0.01 6.22)" style="fill:none;stroke:#fff;stroke-miterlimit:10;stroke-width:10px"/><path id="and-d-1" d="M378.44,58.07c-1.87-.5-4.75-4.69-7.56-3.06-1.6.92-2.27,1.74-6.25,8.31s-5.18,8-6.62,11.94a46.55,46.55,0,0,0-1.44,4.63,27,27,0,0,0-1.31,8.69c0.12,2.54.24,5,1.94,6.06,1.51,1,3.67.53,5.06-.19,1.69-.87,3.05-2.55,5.69-11.25,1-3.31,1.69-6,2.06-7.5,1.09-4.5,1.84-8.26,2.31-10.87" transform="translate(0.01 6.22)" style="fill:none;stroke:#fff;stroke-miterlimit:10;stroke-width:10px"/><path id="and-d-2" d="M390.25,54.32L371.38,78.89" transform="translate(0.01 6.22)" style="fill:none;stroke:#fff;stroke-miterlimit:10;stroke-width:3px"/><path id="and-d-3" d="M392.63,56.82c9.13-12.12,10.43-25.52,11.69-32,0.48-2.45,2.36-12.15-.12-13.19s-9.29,7.59-13,15.44c-2,4.31-2,7.62-3.94,15-1.15,4.48-2.56,7.33-4.12,15-1.89,9.27-3.08,18.69-5.37,27.88-1,3.85-2.46,9.41-.75,15.94,0.55,2.1,1.31,4.85,3.31,5.63,3.63,1.4,9-5.25,12.06-9,2.77-3.4,5.69-7.72,12.56-21.81,2-4,3.54-7.4,4.62-9.75" transform="translate(0.01 6.22)" style="fill:none;stroke:#fff;stroke-miterlimit:10;stroke-width:10px"/></g><g style="clip-path:url(#clip-path-3)"><path id="christine-c-1" d="M458.32,64.59c-3.65-6.34-8-11.93-13.46-10.42-5.68,1.55-8.68,3.91-14.33,24.75-2.56,9.46-2.81,18.49-.63,21,3.51,4.08,12.83,1.13,14.92.47,13.15-4.16,22.61-22.79,24.35-34.51" transform="translate(0.01 6.22)" style="fill:none;stroke:#fff;stroke-miterlimit:10;stroke-width:10px"/><path id="christine-h-1" d="M469.5,73.2a76.44,76.44,0,0,0,18.67-19.5,74.73,74.73,0,0,0,5.17-9.17" transform="translate(0.01 6.22)" style="fill:none;stroke:#fff;stroke-miterlimit:10;stroke-width:2px"/><path id="christine-h-2" d="M492,54.82c6.5-15.12,3.5-18.75,8.33-26,3.07-4.57,7-11.43,6.5-20.17C506.74,7,506.52,3,504.67,2.37c-3-1-7.71,7.93-10.5,13.17-2.64,5-4.36,7.91-7.83,21-5,18.75-3.73,17.34-4.33,19.79-2.84,11.5-4.84,17.11-6.67,25.21-1.78,7.88-4.53,19.35-8.5,33.5" transform="translate(0.01 6.22)" style="fill:none;stroke:#fff;stroke-miterlimit:10;stroke-width:10px"/><path id="christine-h-3" d="M479.27,82.91c6.26,1.44,5.3-9.33,10-14.59,3.48-3.91,14.21-8.12,18.08-10.21" transform="translate(0.01 6.22)" style="fill:none;stroke:#fff;stroke-miterlimit:10;stroke-width:8px"/><path id="christine-h-4" d="M503.88,60.7c0.21,4.21-2.45,13.59-4,20.42a167.19,167.19,0,0,1-4.54,17.83s-2.16,4.86-2.37,14.33c0,1.51,0,4.27,1.75,5.58a4.36,4.36,0,0,0,2.88.71c4.43-.29,8.08-7,11.25-12.75,9.37-17.11,7.94-14.32,9-16.38,6.76-13.12,8.2-16.17,11.5-21.62C532.24,64.09,536,58.7,536,58.7l2.73-4.08" transform="translate(0.01 6.22)" style="fill:none;stroke:#fff;stroke-miterlimit:10;stroke-width:10px"/><path id="christine-r-1" d="M536.67,56.24l4.75-7.79" transform="translate(0.01 6.22)" style="fill:none;stroke:#fff;stroke-miterlimit:10;stroke-width:2px"/><path id="christine-r-2" d="M540.25,50.57a9.76,9.76,0,0,0,2.25-5.37,5.65,5.65,0,0,0-.87-4.25c-1.34-1.64-4.07-2.31-5.62-1.25-2.11,1.44-1.21,5.46-1,6.38,1.44,6.38,9,9.6,11.63,10.75" transform="translate(0.01 6.22)" style="fill:none;stroke:#fff;stroke-miterlimit:10;stroke-width:7px"/><path id="christine-r-3" d="M551.25,51.2c-17.76,40.1-14.18,59.31-9.5,62.13,5.34,3.22,15-7,21.38-25.25C570.33,67.37,569,53.2,569,53.2" transform="translate(0.01 6.22)" style="fill:none;stroke:#fff;stroke-miterlimit:10;stroke-width:11px"/><path id="christine-i-1-1" d="M586.75,54.7c-3.3,3.72-7.25,10.8-9.75,23.75-3.09,16-.55,27.66,1.5,32" transform="translate(0.01 6.22)" style="fill:none;stroke:#fff;stroke-miterlimit:10;stroke-width:11px"/><path id="christine-s-1" d="M580.75,100.7a61.48,61.48,0,0,0,8.63-6.88c1.86-1.79,19.34-19,19.38-44,0-.56-1-2.4-0.12-3.75,1-1.57,4-2.17,6.13-1,1.82,1,2.36,3,2.75,4.5,1.07,4.13-.6,5.61-0.62,11.38a54.09,54.09,0,0,0,.88,7.88c0.22,1.5,0,5.9.88,9.88,0.53,2.33.38,3.42,1.13,5.5" transform="translate(0.01 6.22)" style="fill:none;stroke:#fff;stroke-miterlimit:10;stroke-width:11px"/><path id="christine-s-2" d="M619.33,84.37l1.08,3" transform="translate(0.01 6.22)" style="fill:none;stroke:#fff;stroke-miterlimit:10;stroke-width:8px"/><path id="christine-s-3" d="M619,87.78c0.61,1.15.06,5.85-.92,10.54-0.22,1.06,1.38,1.6-1.5,4.29-0.87.81-4.25,5.48-8.33,5.08a26.12,26.12,0,0,1-4-1.17c-4.84-1.58-5-1.59-5.21-1.83-2.14-3,4.88-13.28,9.54-14.29A11.29,11.29,0,0,0,613,88.57a10.27,10.27,0,0,0,1.5-1.29c2.74-2.82,12.11-4.32,15.38-5.71,3.47-1.47,7.23-5.85,8.71-18.5" transform="translate(0.01 6.22)" style="fill:none;stroke:#fff;stroke-miterlimit:10;stroke-width:10px"/><path id="christine-t-1" d="M664,11.45c-4.39,13.2-8.86,27.3-13.5,42.75,0,0-4.69,15.61-5.5,31a61.36,61.36,0,0,0,.5,11c0.77,5.8,1.55,10.51,4.25,11.25,4.79,1.31,13.9-13.69,18-23.75A126.48,126.48,0,0,0,675,58.95" transform="translate(0.01 6.22)" style="fill:none;stroke:#fff;stroke-miterlimit:10;stroke-width:10px"/><path id="christine-t-2" d="M623.75,17.7c-0.45,1.42-3.2,10.59,2,17.5,3.42,4.54,8.47,5.71,13.25,6.75,10.79,2.34,15.49-4.36,27.5-3a35,35,0,0,1,9.5,2.5,26.23,26.23,0,0,1,3.5,2" transform="translate(0.01 6.22)" style="fill:none;stroke:#fff;stroke-miterlimit:10;stroke-width:10px"/><path id="christine-i-2-1" d="M688.5,53.45a102.08,102.08,0,0,0-8,22.75c-1,4.6-.24,2.95-1.75,11.75-0.93,5.41-1.44,7.35-.25,9.5a8.37,8.37,0,0,0,7,4c1.65,0,4.51-.63,8.5-5.75,7.57-9.7,10.42-24.31,11.5-31.5" transform="translate(0.01 6.22)" style="fill:none;stroke:#fff;stroke-miterlimit:10;stroke-width:10px"/><path id="christine-n-1" d="M720,49.95q-1.8,6.68-3.75,13.5c-1.27,4.43-1.92,6.39-3,10.25-1.54,5.54-2.34,8.37-3,11.75-0.85,4.32-.69,5.06-1.5,8.75a67.2,67.2,0,0,1-2.75,9.25" transform="translate(0.01 6.22)" style="fill:none;stroke:#fff;stroke-miterlimit:10;stroke-width:10px"/><path id="christine-n-2" d="M714,83.2a95.32,95.32,0,0,1,17.25-24.75c4.16-4.26,6-5.27,7.25-4.75,3.07,1.3,2.44,12.25-.5,20.5-1,2.82-1.57,3.31-2.75,7a105.06,105.06,0,0,0-2.75,12.5s-0.63,3.35-1.5,9.75c-0.38,2.8-.61,4.79,0,7.25,0.44,1.76.91,4,2,4.5,3.37,1.61,13.51-7.13,17.75-18.75,1.39-3.81,1.2-5.35,2.75-15.5,1.27-8.31,2.58-15,3.5-19.5" transform="translate(0.01 6.22)" style="fill:none;stroke:#fff;stroke-miterlimit:10;stroke-width:10px"/><path id="christine-e-1" d="M758.25,80.95a101.78,101.78,0,0,1,7.5-9c1.21-1.29,4.75-4.75,4.75-4.75h0l2.75-1.5" transform="translate(0.01 6.22)" style="fill:none;stroke:#fff;stroke-miterlimit:10;stroke-width:3px"/><path id="christine-e-2" d="M773.75,65.95a14.74,14.74,0,0,0,8.5-1.33,12.43,12.43,0,0,0,4.25-3.17c2-2,2.52-3.09,2.75-4a5.68,5.68,0,0,0,0-3,5.62,5.62,0,0,0-1.5-2.5" transform="translate(0.01 6.22)" style="fill:none;stroke:#fff;stroke-miterlimit:10;stroke-width:3px"/><path id="christine-e-3" data-name="christine-e-3" d="M788.5,52.95a9.53,9.53,0,0,0-6.75-2.25c-3.08.37-5.32,2.73-7.75,6.5-4.06,6.29-6.09,12.55-8.75,24.5-3.37,15.13-3.08,18.44-1,20.75,2.54,2.83,6.67,3,8.25,3,14.59,0.42,16.23-24.69,38.25-38.5,15.4-9.66,28.52-6.53,34.22-6.5" transform="translate(0.01 6.22)" style="fill:none;stroke:#fff;stroke-miterlimit:10;stroke-width:14px"/><path id="christine-dot-1" d="M591.33,51.87l-11-13" transform="translate(0.01 6.22)" style="fill:none;stroke:#fff;stroke-miterlimit:10;stroke-width:10px"/><path id="christine-dot-2" d="M698.4,50.26l-15.14-7.8" transform="translate(0.01 6.22)" style="fill:none;stroke:#fff;stroke-miterlimit:10;stroke-width:10px"/></g>
    </svg>
