<svg class="hotel-icon" xmlns="http://www.w3.org/2000/svg" viewBox="0 0 402 401.54">
  <title>Hotel Icon</title>
  <rect id="shader-4" x="98.67" y="171.67" width="27.33" height="210" style="fill: #d9dcd6"/>
  <rect id="shader-3" x="173" y="130" width="229" height="13" style="fill: #d9dcd6"/>
  <rect id="shader-2" x="196" y="95" width="193" height="15" style="fill: #d9dcd6"/>
  <rect id="shader-1" x="219.58" y="17" width="147.42" height="56" style="fill: #d9dcd6"/>
  <g>
    <path d="M64.26,258.2a2.83,2.83,0,0,1-2.83-2.83V187.12a2.83,2.83,0,0,1,2.83-2.83H112a2.83,2.83,0,0,1,2.83,2.83v68.25A2.83,2.83,0,0,1,112,258.2Zm2.82-5.65h42.13V189.94H67.08Z" style="fill: #18425a"/>
    <path d="M64.26,367.41a2.83,2.83,0,0,1-2.83-2.82V296.33a2.83,2.83,0,0,1,2.83-2.82H112a2.83,2.83,0,0,1,2.83,2.82v68.26a2.83,2.83,0,0,1-2.83,2.82Zm2.82-5.65h42.13V299.16H67.08Z" style="fill: #18425a"/>
    <path d="M0,401.54v-5.65H27.31V155.82H16.48A2.83,2.83,0,0,1,13.65,153V118.86A2.83,2.83,0,0,1,16.48,116H27.31V84.73a2.83,2.83,0,0,1,2.82-2.83H47.78V2.82A2.83,2.83,0,0,1,50.6,0H350.94a2.83,2.83,0,0,1,2.82,2.82V81.91h17.65a2.83,2.83,0,0,1,2.82,2.82V116h10.82a2.83,2.83,0,0,1,2.83,2.83V153a2.83,2.83,0,0,1-2.83,2.82H374.24V395.89H401.6v5.65Zm33-5.65H368.59V155.82H33ZM19.31,150.16H382.24V121.69H19.31ZM33,116H368.59V87.56H33ZM53.43,81.91H348.11V5.65H53.43Z" style="fill: #18425a"/>
  </g>
  <path d="M118.14,26.25h8.11V62.6h-8.11V48.3H103.68V62.6H95.57V26.25h8.11V41.43h14.46Zm58.43,4.55a18,18,0,0,1,5.51,13.39,18,18,0,0,1-5.51,13.39,19.8,19.8,0,0,1-27.14,0,18,18,0,0,1-5.51-13.39,18,18,0,0,1,5.51-13.39,19.8,19.8,0,0,1,27.14,0Zm-2.76,13.42a11.89,11.89,0,0,0-3.12-8.29,10.29,10.29,0,0,0-15.34,0,11.89,11.89,0,0,0-3.12,8.29,11.8,11.8,0,0,0,3.12,8.27,10.34,10.34,0,0,0,15.34,0A11.8,11.8,0,0,0,173.81,44.22Zm21.93-10.95H206V62.6h8.11V33.27h10.3v-7h-28.7Zm53.54,14.61h16.28V41H249.28V33.48h18.1V26.25H241.17V62.6H268V55.42H249.28Zm44.81,7.49V26.25H286V62.6h23.61V55.37Z" style="fill: #18425a"/>
  <path id="disco-ball" d="M244.72,358.4a72.77,72.77,0,0,1-14.88-144l.7-.14.09-.71a14.27,14.27,0,0,1,10.81-12l.77-.18V156.84a2.51,2.51,0,0,1,5,0v44.54l.77.18a14.28,14.28,0,0,1,10.81,12l.09.71.7.14a72.77,72.77,0,0,1-14.88,144Zm-10.53-22.58c3.1,11,7,17.56,10.53,17.56s7.44-6.56,10.53-17.56l.39-1.4-1.44.13c-3.24.29-6.43.43-9.48.43s-6.24-.15-9.48-.43l-1.44-.13Zm41.9-5.67a97.2,97.2,0,0,1-14.5,3.48l-.65.11-.16.64a68.26,68.26,0,0,1-5.48,15.15L254,352l2.6-1.1c7.92-3.35,15.08-10,20.69-19.29l1.39-2.3Zm-63.9,1.47c5.61,9.27,12.77,15.95,20.69,19.29l2.6,1.1-1.33-2.49a68.31,68.31,0,0,1-5.48-15.15l-.16-.64-.65-.11a97.18,97.18,0,0,1-14.51-3.48l-2.56-.83ZM304,314.17a67.75,67.75,0,0,1-18.13,12.12l-.33.15-.15.33a67.73,67.73,0,0,1-12.12,18.13l1.17,1.59a68.36,68.36,0,0,0,31.15-31.15Zm-120.13,1.17A68.36,68.36,0,0,0,215,346.49l1.17-1.59a67.74,67.74,0,0,1-12.12-18.13l-.15-.33-.33-.15a67.76,67.76,0,0,1-18.13-12.12Zm45.54-7.77a175.1,175.1,0,0,0,3,21l.15.71.72.08a102.28,102.28,0,0,0,22.89,0l.72-.08.15-.71a174.76,174.76,0,0,0,3-21l.1-1.15-1.15.06c-4.77.26-9.57.39-14.26.39s-9.5-.13-14.27-.39l-1.15-.06Zm56.71-4.26A194.05,194.05,0,0,1,266,306l-.84.07-.07.84A193.3,193.3,0,0,1,262.4,327l-.28,1.45,1.45-.27a88.08,88.08,0,0,0,17.86-5.33l.37-.16.16-.37a88,88,0,0,0,5.33-17.86l.27-1.45Zm-84,1.17a88,88,0,0,0,5.33,17.86l.16.37.37.16a87.93,87.93,0,0,0,17.86,5.33l1.45.27L227,327a193.87,193.87,0,0,1-2.69-20.12l-.07-.84-.84-.07a193.87,193.87,0,0,1-20.12-2.69l-1.44-.28Zm106.45-8.27a68.3,68.3,0,0,1-15.15,5.48l-.64.16-.11.65A97,97,0,0,1,289.23,317l-.83,2.56,2.3-1.39c9.27-5.61,15.95-12.77,19.29-20.69l1.1-2.6Zm-129.16,1.27c3.35,7.92,10,15.08,19.3,20.69l2.3,1.39-.83-2.56a96.84,96.84,0,0,1-3.48-14.51l-.1-.65-.64-.16a68.5,68.5,0,0,1-15.15-5.48l-2.49-1.33Zm65.27-28.07c-5,0-10.05.14-14.87.41l-.89,0,0,.89c-.27,4.83-.41,9.84-.41,14.87s.14,10,.41,14.87l0,.89.89,0c4.82.27,9.83.41,14.87.41s10.05-.14,14.87-.41l.89,0,0-.89c.27-4.82.41-9.82.41-14.87s-.14-10-.41-14.87l0-.89-.89,0C254.77,269.55,249.77,269.41,244.72,269.41Zm-21.94.91a174.24,174.24,0,0,0-21,3l-.71.15-.08.72a102.28,102.28,0,0,0,0,22.89l.08.72.71.15a174.94,174.94,0,0,0,21,3l1.15.1-.06-1.15c-.26-4.73-.39-9.53-.39-14.26s.13-9.53.39-14.26l.06-1.15Zm42.79,1.05c.26,4.77.39,9.57.39,14.26s-.13,9.49-.39,14.26l-.06,1.15,1.15-.1a174.74,174.74,0,0,0,21-3l.71-.15.08-.72a102.28,102.28,0,0,0,0-22.89l-.08-.72-.71-.15a174.7,174.7,0,0,0-21-3l-1.15-.1Zm-71,3.73c-11,3.1-17.56,7-17.56,10.53s6.56,7.44,17.56,10.53l1.4.39-.13-1.44c-.29-3.24-.43-6.43-.43-9.48s.15-6.24.43-9.48l.13-1.44Zm99.09,1.05c.29,3.24.43,6.43.43,9.48s-.14,6.17-.43,9.48l-.13,1.44,1.39-.39c11-3.1,17.56-7,17.56-10.53s-6.56-7.44-17.56-10.53l-1.4-.39Zm-4.4-21.88a97,97,0,0,1,3.48,14.5l.11.65.64.16a68.35,68.35,0,0,1,15.15,5.48l2.49,1.33-1.1-2.6c-3.35-7.92-10-15.08-19.29-20.69l-2.3-1.39Zm-90.49-1.17c-9.27,5.61-15.95,12.76-19.3,20.69l-1.1,2.6,2.49-1.33A68.29,68.29,0,0,1,196,269.58l.64-.16.11-.65a97.35,97.35,0,0,1,3.48-14.5l.83-2.56Zm63.65-8.86a193.94,193.94,0,0,1,2.69,20.12l.07.84.84.07A193.63,193.63,0,0,1,286.12,268l1.45.28-.27-1.45A88.11,88.11,0,0,0,282,248.92l-.16-.37-.37-.16a87.87,87.87,0,0,0-17.86-5.33l-1.44-.27Zm-36.52-1.17A87.83,87.83,0,0,0,208,248.39l-.37.16-.16.37a87.89,87.89,0,0,0-5.33,17.86l-.27,1.44,1.44-.28a194.54,194.54,0,0,1,20.12-2.69l.84-.07.07-.84A193.13,193.13,0,0,1,227,244.23l.28-1.44Zm18.84,21.32c4.69,0,9.49.13,14.26.39l1.15.06-.1-1.15a174.38,174.38,0,0,0-3-21l-.15-.71-.72-.08a102.28,102.28,0,0,0-22.89,0l-.72.08-.15.71a175,175,0,0,0-3,21l-.1,1.15,1.15-.06C235.23,264.52,240,264.39,244.72,264.39ZM215,224.77a68.39,68.39,0,0,0-31.16,31.16l1.59,1.17A67.78,67.78,0,0,1,203.58,245l.33-.15.15-.33a67.76,67.76,0,0,1,12.12-18.13Zm58.25,1.59a67.7,67.7,0,0,1,12.12,18.13l.15.33.33.15A67.75,67.75,0,0,1,304,257.09l1.59-1.17a68.37,68.37,0,0,0-31.15-31.15Zm-40.39-6c-7.92,3.35-15.08,10-20.68,19.3l-1.39,2.3,2.56-.83a97.16,97.16,0,0,1,14.5-3.48l.65-.11.16-.64a68.3,68.3,0,0,1,5.48-15.15l1.33-2.49Zm22.42,1.39a68.24,68.24,0,0,1,5.48,15.15l.16.64.65.11a97.16,97.16,0,0,1,14.5,3.48l2.56.83-1.39-2.3c-5.61-9.28-12.76-15.95-20.69-19.3l-2.6-1.1Zm-10.58,14.54c3.05,0,6.24.15,9.48.43l1.44.13-.39-1.4c-3.1-11-7-17.56-10.53-17.56s-7.44,6.56-10.53,17.56l-.39,1.4,1.44-.13C238.47,236.43,241.67,236.28,244.72,236.28Zm0-23.42a73.42,73.42,0,0,1,7.47.38l1.67.17-.64-1.55a9.18,9.18,0,0,0-17,0l-.64,1.55,1.67-.17A73.48,73.48,0,0,1,244.72,212.87Z" style="fill: #18425a"/>
  <path id="star-4" d="M152.65,356.26,142,346.47l14-3.7,9.79-10.67,3.7,14,10.67,9.79-14,3.7-9.79,10.67Zm5.06,8.49,7-7.58,10-2.63-7.58-7-2.63-10-7,7.58-10,2.63,7.58,7Z" style="fill: #18425a"/>
  <path id="star-3" d="M328.26,364.88l-12-.44,6.82-9.83.44-12,9.83,6.82,12,.44-6.82,9.83-.44,12Zm7,1.19.27-7.32,4.17-6-7.32-.27-6-4.18-.27,7.32-4.18,6,7.32.27Z" style="fill: #18425a"/>
  <path id="star-2" d="M313.5,213.41l-13.39-7.33,13.39-7.33,7.33-13.39,7.33,13.39,13.39,7.32-13.39,7.33-7.33,13.39Zm7.32,7.09,5.09-9.32,9.32-5.1-9.32-5.1-5.09-9.31L315.73,201l-9.32,5.09,9.32,5.1Z" style="fill: #18425a"/>
  <path id="star-1" d="M166.4,213.38l-10.5-5.74,10.5-5.74,5.74-10.5,5.74,10.5,10.5,5.74-10.5,5.74-5.74,10.5Zm5.74,4.2,3.52-6.42,6.42-3.52-6.42-3.52-3.52-6.42-3.52,6.42-6.42,3.52,6.42,3.52Z" style="fill: #18425a"/>
</svg>
